<?xml version="1.0" encoding="utf-8"?>
<!-- Generator: Adobe Illustrator 16.0.0, SVG Export Plug-In . SVG Version: 6.00 Build 0)  -->
<!DOCTYPE svg PUBLIC "-//W3C//DTD SVG 1.1//EN" "http://www.w3.org/Graphics/SVG/1.1/DTD/svg11.dtd">
<svg version="1.1" id="Layer_1" xmlns="http://www.w3.org/2000/svg" xmlns:xlink="http://www.w3.org/1999/xlink" x="0px" y="0px"
	 width="16px" height="16px" viewBox="0 0 16 16" enable-background="new 0 0 16 16" xml:space="preserve">
<g id="XMLID_1_">
	<g>
		<path fill="#33CC66" d="M7.98,4.93c0.76,0,1.31,0.5,1.31,1.24c0,0.7-0.46,1.23-0.9,1.71l-2.97,3.29V12h5.35v-1.11h-3.5V10.82
			L9.24,8.6l0.1-0.109c0.69-0.76,1.28-1.43,1.28-2.43c0-1.27-1.03-2.22-2.61-2.22c-1.76,0-2.63,1.19-2.63,2.41v0.06h1.27V6.24
			C6.65,5.55,7.14,4.93,7.98,4.93z M8,0c4.42,0,8,3.58,8,8s-3.58,8-8,8s-8-3.58-8-8S3.58,0,8,0z"/>
	</g>
	<g>
	</g>
</g>
</svg>
