<?xml version="1.0" encoding="utf-8"?>
<!-- Generator: Adobe Illustrator 16.0.0, SVG Export Plug-In . SVG Version: 6.00 Build 0)  -->
<!DOCTYPE svg PUBLIC "-//W3C//DTD SVG 1.1//EN" "http://www.w3.org/Graphics/SVG/1.1/DTD/svg11.dtd">
<svg version="1.1" id="Layer_1" xmlns="http://www.w3.org/2000/svg" xmlns:xlink="http://www.w3.org/1999/xlink" x="0px" y="0px"
	 width="16px" height="16px" viewBox="0 0 16 16" enable-background="new 0 0 16 16" xml:space="preserve">
<g id="XMLID_1_">
	<g>
		<path fill="#33CC66" d="M7.92,8.41c0.92,0,1.53,0.54,1.54,1.32c0.01,0.789-0.62,1.359-1.59,1.359c-0.86-0.01-1.48-0.47-1.54-1.07
			H5.1C5.15,11.2,6.15,12.16,7.86,12.16c1.65,0,2.95-0.93,2.93-2.391C10.77,8.49,9.76,7.92,9.05,7.85V7.78
			c0.601-0.1,1.51-0.74,1.49-1.87C10.51,4.73,9.49,3.83,7.9,3.84C6.22,3.85,5.31,4.83,5.27,5.96h1.25c0.04-0.55,0.56-1.05,1.35-1.05
			c0.78,0,1.35,0.49,1.35,1.19c0,0.72-0.569,1.24-1.34,1.24H7.04v1.07H7.92z M8,0c4.42,0,8,3.58,8,8s-3.58,8-8,8s-8-3.58-8-8
			S3.58,0,8,0z"/>
	</g>
	<g>
	</g>
</g>
</svg>
