<?xml version="1.0" encoding="utf-8"?>
<!-- Generator: Adobe Illustrator 16.0.0, SVG Export Plug-In . SVG Version: 6.00 Build 0)  -->
<!DOCTYPE svg PUBLIC "-//W3C//DTD SVG 1.1//EN" "http://www.w3.org/Graphics/SVG/1.1/DTD/svg11.dtd">
<svg version="1.1" id="Layer_1" xmlns="http://www.w3.org/2000/svg" xmlns:xlink="http://www.w3.org/1999/xlink" x="0px" y="0px"
	 width="16px" height="16px" viewBox="0 0 16 16" enable-background="new 0 0 16 16" xml:space="preserve">
<path fill="#33CC66" d="M16,8c0,4.418-3.582,8-8,8c-4.418,0-8-3.582-8-8c0-4.418,3.582-8,8-8C12.418,0,16,3.582,16,8 M7.519,5.057
	C6.633,6.475,5.747,7.895,4.977,9.322v1.119H8.85V12h1.26v-1.559h1.008V9.334h-1.008V4.002H8.176L7.519,5.057z M6.225,9.281v0.053
	H8.85V5.063H8.785C7.918,6.393,6.998,7.869,6.225,9.281"/>
</svg>
