<?xml version="1.0" encoding="utf-8"?>
<!-- Generator: Adobe Illustrator 16.0.0, SVG Export Plug-In . SVG Version: 6.00 Build 0)  -->
<!DOCTYPE svg PUBLIC "-//W3C//DTD SVG 1.1//EN" "http://www.w3.org/Graphics/SVG/1.1/DTD/svg11.dtd">
<svg version="1.1" id="Layer_1" xmlns="http://www.w3.org/2000/svg" xmlns:xlink="http://www.w3.org/1999/xlink" x="0px" y="0px"
	 width="16px" height="16px" viewBox="0 0 16 16" enable-background="new 0 0 16 16" xml:space="preserve">
<path fill="#FF9B13" d="M10.036,13.057c0,0,0,0-0.001,0.002c-0.174,0.154-0.457,0.154-0.631-0.002L4.053,8.28
	c-0.002,0-0.002,0-0.002,0C3.877,8.125,3.878,7.873,4.053,7.718l5.352-4.776c0.175-0.155,0.458-0.155,0.632,0
	c0.175,0.156,0.175,0.408,0,0.563L4.999,7.999l5.037,4.495c0.001,0,0.001,0,0.001,0C10.211,12.65,10.211,12.902,10.036,13.057"/>
<path fill="#CCCCCC" d="M15,8c0-3.866-3.134-7-7-7S1,4.134,1,8s3.134,7,7,7S15,11.866,15,8 M0,8c0-4.418,3.582-8,8-8s8,3.582,8,8
	c0,4.418-3.582,8-8,8S0,12.418,0,8"/>
</svg>
