<?xml version="1.0" encoding="utf-8"?>
<!-- Generator: Adobe Illustrator 16.0.0, SVG Export Plug-In . SVG Version: 6.00 Build 0)  -->
<!DOCTYPE svg PUBLIC "-//W3C//DTD SVG 1.1//EN" "http://www.w3.org/Graphics/SVG/1.1/DTD/svg11.dtd">
<svg version="1.1" id="Layer_1" xmlns="http://www.w3.org/2000/svg" xmlns:xlink="http://www.w3.org/1999/xlink" x="0px" y="0px"
	 width="16px" height="16px" viewBox="0 0 16 16" enable-background="new 0 0 16 16" xml:space="preserve">
<path fill="#FF9B13" d="M5.964,13.057c-0.174-0.154-0.175-0.406-0.001-0.563c0,0,0,0,0.001,0l5.037-4.495L5.964,3.504
	c-0.174-0.155-0.174-0.407,0-0.563c0.174-0.155,0.457-0.155,0.631,0l5.352,4.776c0.175,0.155,0.176,0.408,0.002,0.563
	c0,0,0,0-0.002,0l-5.352,4.776c-0.174,0.156-0.457,0.156-0.631,0.002C5.964,13.057,5.964,13.057,5.964,13.057"/>
<path fill="#CCCCCC" d="M1,8c0,3.866,3.134,7,7,7s7-3.134,7-7s-3.134-7-7-7S1,4.134,1,8 M16,8c0,4.418-3.582,8-8,8
	c-4.418,0-8-3.582-8-8c0-4.418,3.582-8,8-8C12.418,0,16,3.582,16,8"/>
</svg>
